<svg width="512" height="512" viewBox="0 0 512 512" fill="none" xmlns="http://www.w3.org/2000/svg">
<g clip-path="url(#clip0_2689_15734)">
<rect width="512" height="512" fill="white"/>
<path fill-rule="evenodd" clip-rule="evenodd" d="M858.682 187.963C858.359 187.963 858.05 187.835 857.821 187.606L810.139 139.942C809.91 139.714 809.6 139.586 809.277 139.586H611.975C611.652 139.586 611.342 139.714 611.114 139.942L563.431 187.607C563.203 187.835 562.893 187.963 562.571 187.964L562.476 187.964H463.702C463.491 187.964 463.283 187.909 463.1 187.804L377.854 139.332C364.074 131.597 355.31 124.821 349.217 113.675C348.58 112.51 346.614 112.942 346.614 114.27V186.745C346.614 187.418 346.069 187.964 345.396 187.964H295.084C294.411 187.964 293.865 187.418 293.865 186.745V1.01958C293.865 0.346729 294.411 -0.198718 295.084 -0.198718H345.396C346.069 -0.198718 346.614 0.346738 346.614 1.01959V75.4466C346.614 76.7545 348.504 77.194 349.153 76.0581C355.59 64.7793 364.502 58.2772 380.927 48.4332L462.837 -0.0289389C463.024 -0.14008 463.239 -0.198718 463.457 -0.198718H556.424C557.668 -0.198718 558.112 1.44683 557.037 2.07261L400.421 93.2022C399.61 93.6741 399.615 94.8471 400.429 95.3128L514.698 160.646C515.171 160.917 515.766 160.84 516.155 160.46L664.988 14.8232C677.279 2.85619 689.826 -3 703.91 -3H717.343C731.426 -3 743.973 2.85619 756.264 14.8232L931.07 185.874C931.85 186.638 931.309 187.963 930.218 187.963H858.682ZM270.121 130.166C270.121 96.3014 261.67 70.585 205.848 70.585H44.5281C32.242 70.585 31.7458 58.6271 31.7258 48.8863C31.7244 48.2134 32.2704 47.6694 32.9432 47.6694H256.099C256.772 47.6694 257.317 47.1239 257.317 46.4511V1.0196C257.317 0.346742 256.772 -0.198718 256.099 -0.198718H44.5281C-14.3666 -0.198718 -20 23.4807 -20 59.891C-20 94.0098 -9.24531 118.453 44.5281 118.453H219.969C220.651 118.453 221.201 119.015 221.186 119.697C220.922 131.583 220.186 140.859 205.336 140.859H-6.74668C-7.41954 140.859 -7.96499 141.405 -7.96499 142.078V186.745C-7.96499 187.418 -7.41953 187.964 -6.74668 187.964H206.361C261.158 187.964 270.121 164.03 270.121 130.166ZM832.131 1.01963C832.131 0.34678 832.677 -0.198677 833.35 -0.198677H1099.52C1100.2 -0.198677 1100.74 0.346779 1100.74 1.01963V4.80112C1100.74 5.71733 1101.72 6.30844 1102.54 5.91027C1110.67 1.99055 1119.91 -0.199421 1129.85 -0.199421L1333.22 -0.452519C1333.9 -0.453357 1334.44 0.0923438 1334.44 0.76579V46.705C1334.44 47.3778 1333.9 47.9233 1333.23 47.9233H1129.85C1119.61 47.9233 1118.33 55.5618 1118.33 63.7096V68.6021C1118.33 69.275 1118.87 69.8204 1119.54 69.8204H1333.23C1333.9 69.8204 1334.44 70.3659 1334.44 71.0387V117.234C1334.44 117.907 1333.9 118.452 1333.23 118.452H1119.8C1119.13 118.452 1118.58 118.998 1118.58 119.671V122.781C1118.58 131.947 1119.86 138.822 1129.85 138.822H1333.23C1333.9 138.822 1334.44 139.367 1334.44 140.04V186.745C1334.44 187.418 1333.9 187.963 1333.23 187.963H1129.85C1093.74 187.963 1069.16 164.284 1069.16 128.128V59.8903C1069.16 56.2966 1069.46 52.7844 1070.04 49.3774C1070.16 48.6222 1069.59 47.924 1068.82 47.924H991.853C991.18 47.924 990.635 48.4695 990.635 49.1423V186.745C990.635 187.418 990.09 187.964 989.417 187.964H944.225C943.553 187.964 943.007 187.418 943.007 186.745V49.6516C943.007 48.9787 942.462 48.4333 941.789 48.4333H833.35C832.677 48.4333 832.131 47.8878 832.131 47.2149V1.01963ZM1357.76 41.558C1357.76 16.6055 1380.8 -3 1405.64 -3C1419.72 -3 1432.27 2.85619 1444.56 14.8232L1571.3 136.087C1572.08 136.828 1573.36 136.279 1573.36 135.206V0.76449C1573.36 0.0916361 1573.91 -0.453816 1574.58 -0.453816H1620.28C1620.96 -0.453816 1621.5 0.0916396 1621.5 0.764494V138.058C1621.5 168.103 1599.22 190 1573.36 190C1559.28 190 1550.06 184.653 1521.12 159.446L1407.71 49.419C1406.93 48.6695 1405.64 49.217 1405.64 50.2935V186.745C1405.64 187.418 1405.09 187.963 1404.42 187.963H1358.97C1358.3 187.963 1357.76 187.418 1357.76 186.745V41.558ZM1909.37 47.9233C1910.04 47.9233 1910.59 47.3778 1910.59 46.705V0.76579C1910.59 0.0923442 1910.04 -0.453357 1909.37 -0.452519L1705.99 -0.199421C1671.42 -0.199421 1645.3 26.2808 1645.3 59.8903V128.128C1645.3 164.284 1669.89 187.963 1705.99 187.963H1909.37C1910.04 187.963 1910.59 187.418 1910.59 186.745V140.04C1910.59 139.367 1910.04 138.822 1909.37 138.822H1705.99C1696 138.822 1694.72 131.947 1694.72 122.781V119.671C1694.72 118.998 1695.27 118.452 1695.94 118.452H1909.37C1910.04 118.452 1910.59 117.907 1910.59 117.234V71.0387C1910.59 70.3659 1910.04 69.8204 1909.37 69.8204H1695.69C1695.01 69.8204 1694.47 69.275 1694.47 68.6021V63.7096C1694.47 55.5618 1695.75 47.9233 1705.99 47.9233H1909.37ZM1933.39 1.01963C1933.39 0.34678 1933.93 -0.198677 1934.61 -0.198677H2200.78C2201.45 -0.198677 2202 0.346779 2202 1.01963V46.7057C2202 47.3786 2201.45 47.924 2200.78 47.924H2093.11C2092.44 47.924 2091.89 48.4695 2091.89 49.1423V186.745C2091.89 187.418 2091.35 187.964 2090.67 187.964H2045.48C2044.81 187.964 2044.26 187.418 2044.26 186.745V49.6516C2044.26 48.9787 2043.72 48.4333 2043.05 48.4333H1934.61C1933.93 48.4333 1933.39 47.8878 1933.39 47.2149V1.01963ZM655.128 99.1016C654.042 99.1016 653.499 97.7889 654.267 97.0215L703.553 47.7708C703.781 47.5425 704.091 47.4142 704.414 47.4142H716.838C717.161 47.4142 717.471 47.5425 717.699 47.7708L766.986 97.0215C767.754 97.7889 767.21 99.1016 766.125 99.1016H655.128Z" fill="black"/>
<path fill-rule="evenodd" clip-rule="evenodd" d="M203.821 362.449C203.498 362.449 203.188 362.32 202.959 362.092L166.842 325.959C166.614 325.73 166.304 325.602 165.981 325.602H16.0705C15.7473 325.602 15.4373 325.73 15.2088 325.959L-20.9432 362.127C-21.1492 362.333 -21.4287 362.449 -21.7202 362.449V362.449H-96.813C-97.0243 362.449 -97.232 362.394 -97.4156 362.29L-162.223 325.408C-172.186 319.811 -178.703 314.873 -183.306 307.115C-183.983 305.973 -185.997 306.427 -185.997 307.755V361.231C-185.997 361.904 -186.542 362.449 -187.215 362.449H-224.922C-225.595 362.449 -226.14 361.904 -226.14 361.231V220.352C-226.14 219.679 -225.595 219.134 -224.922 219.134H-187.215C-186.542 219.134 -185.997 219.679 -185.997 220.352V275.416C-185.997 276.724 -184.07 277.182 -183.386 276.067C-178.538 268.17 -171.816 263.332 -159.884 256.175L-97.6174 219.304C-97.4295 219.192 -97.2151 219.134 -96.9967 219.134H-27.4024C-26.1584 219.134 -25.7143 220.779 -26.7893 221.405L-144.614 290.02C-145.425 290.492 -145.42 291.665 -144.606 292.13L-58.272 341.533C-57.799 341.804 -57.2039 341.727 -56.8145 341.346L56.2938 230.575C65.6476 221.46 75.1963 217 85.9142 217H96.137C106.855 217 116.404 221.46 125.757 230.575L258.281 360.36C259.061 361.124 258.52 362.449 257.428 362.449H203.821ZM-244.211 318.427C-244.211 292.634 -250.641 273.047 -293.123 273.047H-415.892C-425.121 273.047 -425.609 264.174 -425.635 256.81C-425.637 256.137 -425.091 255.593 -424.418 255.593H-255.173C-254.5 255.593 -253.954 255.047 -253.954 254.374V220.352C-253.954 219.679 -254.5 219.134 -255.173 219.134H-415.892C-460.713 219.134 -465 237.169 -465 264.901C-465 290.888 -456.815 309.506 -415.892 309.506H-282.675C-281.992 309.506 -281.442 310.068 -281.458 310.751C-281.666 319.66 -282.336 326.572 -293.513 326.572H-454.623C-455.296 326.572 -455.841 327.117 -455.841 327.79V361.231C-455.841 361.904 -455.296 362.449 -454.623 362.449H-292.734C-251.031 362.449 -244.211 344.219 -244.211 318.427ZM183.494 220.352C183.494 219.679 184.04 219.134 184.713 219.134H386.696C387.369 219.134 387.914 219.679 387.914 220.352V222.461C387.914 223.377 388.89 223.969 389.719 223.579C395.796 220.724 402.677 219.133 410.066 219.133L564.548 218.941C565.221 218.94 565.768 219.486 565.768 220.159V254.568C565.768 255.241 565.222 255.786 564.549 255.786H410.066C402.271 255.786 401.296 261.604 401.296 267.81V271.246C401.296 271.919 401.842 272.464 402.514 272.464H564.549C565.222 272.464 565.768 273.01 565.768 273.683V308.287C565.768 308.96 565.222 309.505 564.549 309.505H402.709C402.037 309.505 401.491 310.051 401.491 310.724V312.802C401.491 319.784 402.466 325.02 410.066 325.02H564.549C565.222 325.02 565.768 325.565 565.768 326.238V361.23C565.768 361.903 565.222 362.449 564.549 362.449H410.066C382.589 362.449 363.881 344.413 363.881 316.875V264.901C363.881 262.286 364.088 259.727 364.489 257.241C364.611 256.485 364.036 255.787 363.27 255.787H305.338C304.665 255.787 304.12 256.332 304.12 257.005V361.231C304.12 361.904 303.574 362.449 302.901 362.449H269.092C268.419 362.449 267.874 361.904 267.874 361.231V257.393C267.874 256.72 267.328 256.175 266.655 256.175H184.713C184.04 256.175 183.494 255.629 183.494 254.956V220.352ZM583.508 250.938C583.508 231.933 601.047 217 619.949 217C630.667 217 640.216 221.46 649.57 230.575L745.529 322.465C746.304 323.206 747.59 322.657 747.59 321.585V220.158C747.59 219.485 748.135 218.939 748.808 218.939H783.007C783.68 218.939 784.226 219.485 784.226 220.158V324.438C784.226 347.322 767.272 364 747.59 364C736.872 364 729.857 359.927 707.836 340.728L622.016 257.405C621.244 256.655 619.949 257.203 619.949 258.279V361.23C619.949 361.903 619.404 362.449 618.731 362.449H584.727C584.054 362.449 583.508 361.903 583.508 361.23V250.938ZM1003.01 255.786C1003.68 255.786 1004.23 255.241 1004.23 254.568V220.159C1004.23 219.486 1003.68 218.94 1003.01 218.941L848.524 219.133C822.216 219.133 802.34 239.302 802.34 264.901V316.875C802.34 344.413 821.047 362.449 848.524 362.449H1003.01C1003.68 362.449 1004.23 361.903 1004.23 361.23V326.238C1004.23 325.565 1003.68 325.02 1003.01 325.02H848.524C840.924 325.02 839.95 319.784 839.95 312.802V310.724C839.95 310.051 840.495 309.505 841.168 309.505H1003.01C1003.68 309.505 1004.23 308.96 1004.23 308.287V273.683C1004.23 273.01 1003.68 272.464 1003.01 272.464H840.973C840.3 272.464 839.755 271.919 839.755 271.246V267.81C839.755 261.604 840.729 255.786 848.524 255.786H1003.01ZM1021.58 220.352C1021.58 219.679 1022.13 219.134 1022.8 219.134H1224.78C1225.45 219.134 1226 219.679 1226 220.352V254.568C1226 255.241 1225.45 255.787 1224.78 255.787H1143.42C1142.75 255.787 1142.21 256.332 1142.21 257.005V361.231C1142.21 361.904 1141.66 362.449 1140.99 362.449H1107.18C1106.5 362.449 1105.96 361.904 1105.96 361.231V257.393C1105.96 256.72 1105.41 256.175 1104.74 256.175H1022.8C1022.13 256.175 1021.58 255.629 1021.58 254.956V220.352ZM49.4913 294.767C48.406 294.767 47.8624 293.454 48.6298 292.687L85.5574 255.755C85.7858 255.527 86.0957 255.398 86.4189 255.398H95.6324C95.9555 255.398 96.2654 255.527 96.4939 255.755L133.422 292.687C134.189 293.454 133.645 294.767 132.56 294.767H49.4913Z" fill="black"/>
<path fill-rule="evenodd" clip-rule="evenodd" d="M-322.702 512.691C-323.026 512.691 -323.336 512.563 -323.564 512.334L-353.866 481.967C-354.094 481.738 -354.404 481.61 -354.728 481.61H-480.808C-481.131 481.61 -481.442 481.738 -481.67 481.967L-512.058 512.42C-512.231 512.594 -512.466 512.691 -512.712 512.692V512.692H-575.896C-576.108 512.692 -576.316 512.637 -576.5 512.532L-631.029 481.446C-639.068 476.923 -644.443 472.91 -648.288 466.826C-648.997 465.703 -651.05 466.176 -651.05 467.504V511.473C-651.05 512.146 -651.595 512.692 -652.268 512.692H-683.637C-684.31 512.692 -684.855 512.146 -684.855 511.473V393.018C-684.855 392.345 -684.31 391.8 -683.637 391.8H-652.268C-651.595 391.8 -651.05 392.345 -651.05 393.018V438.394C-651.05 439.702 -649.093 440.175 -648.38 439.078C-644.333 432.851 -638.727 428.854 -629.06 423.045L-576.671 391.97C-576.483 391.859 -576.268 391.8 -576.049 391.8H-518.203C-516.959 391.8 -516.515 393.444 -517.589 394.07L-615.917 451.43C-616.727 451.902 -616.722 453.073 -615.909 453.539L-543.619 494.975C-543.146 495.247 -542.55 495.17 -542.16 494.788L-447.016 401.451C-439.139 393.763 -431.098 390 -422.072 390H-413.464C-404.438 390 -396.397 393.763 -388.52 401.451L-277.254 510.603C-276.475 511.367 -277.016 512.691 -278.107 512.691H-322.702ZM-700.072 475.557C-700.072 453.8 -705.488 437.277 -741.262 437.277H-844.646C-852.338 437.277 -852.819 429.946 -852.849 423.773C-852.853 423.1 -852.306 422.554 -851.633 422.554H-709.496C-708.823 422.554 -708.277 422.009 -708.277 421.336V393.018C-708.277 392.345 -708.823 391.8 -709.496 391.8H-844.646C-882.39 391.8 -886 407.014 -886 430.407C-886 452.328 -879.108 468.032 -844.646 468.032H-732.659C-731.977 468.032 -731.426 468.594 -731.443 469.276C-731.623 476.698 -732.259 482.428 -741.59 482.428H-877.069C-877.742 482.428 -878.287 482.973 -878.287 483.646V511.473C-878.287 512.146 -877.742 512.692 -877.069 512.692H-740.934C-705.816 512.692 -700.072 497.314 -700.072 475.557ZM-339.9 393.018C-339.9 392.345 -339.354 391.8 -338.681 391.8H-168.975C-168.302 391.8 -167.756 392.345 -167.756 393.018V394.289C-167.756 395.206 -166.78 395.799 -165.947 395.415C-160.901 393.091 -155.208 391.799 -149.103 391.799L-19.205 391.637C-18.5315 391.636 -17.9851 392.182 -17.9851 392.856V421.499C-17.9851 422.172 -18.5306 422.718 -19.2034 422.718H-149.103C-155.667 422.718 -156.487 427.625 -156.487 432.86V435.568C-156.487 436.241 -155.942 436.786 -155.269 436.786H-19.2034C-18.5306 436.786 -17.9851 437.332 -17.9851 438.004V466.813C-17.9851 467.486 -18.5306 468.032 -19.2034 468.032H-155.105C-155.778 468.032 -156.323 468.577 -156.323 469.25V470.813C-156.323 476.702 -155.503 481.119 -149.103 481.119H-19.2034C-18.5306 481.119 -17.9851 481.664 -17.9851 482.337V511.473C-17.9851 512.146 -18.5306 512.691 -19.2034 512.691H-149.103C-172.241 512.691 -187.995 497.478 -187.995 474.248V430.406C-187.995 428.28 -187.833 426.198 -187.519 424.172C-187.402 423.416 -187.977 422.718 -188.742 422.718H-237.102C-237.775 422.718 -238.32 423.263 -238.32 423.936V511.473C-238.32 512.146 -238.866 512.692 -239.539 512.692H-267.625C-268.298 512.692 -268.843 512.146 -268.843 511.473V424.264C-268.843 423.591 -269.389 423.045 -270.062 423.045H-338.681C-339.354 423.045 -339.9 422.5 -339.9 421.827V393.018ZM-3.0457 418.628C-3.0457 402.596 11.7234 390 27.6413 390C36.667 390 44.7081 393.763 52.5849 401.451L133.067 478.65C133.841 479.393 135.128 478.844 135.128 477.771V392.854C135.128 392.181 135.674 391.636 136.347 391.636H164.761C165.434 391.636 165.979 392.181 165.979 392.854V480.628C165.979 499.931 151.703 514 135.128 514C126.103 514 120.195 510.565 101.651 494.369L29.7091 424.401C28.9368 423.65 27.6413 424.198 27.6413 425.275V511.473C27.6413 512.146 27.0959 512.691 26.423 512.691H-1.8274C-2.50025 512.691 -3.0457 512.146 -3.0457 511.473V418.628ZM350.025 422.718C350.698 422.718 351.243 422.172 351.243 421.499V392.856C351.243 392.182 350.697 391.636 350.023 391.637L220.125 391.799C197.972 391.799 181.233 408.813 181.233 430.406V474.248C181.233 497.478 196.987 512.691 220.125 512.691H350.025C350.698 512.691 351.243 512.146 351.243 511.473V482.337C351.243 481.664 350.698 481.119 350.025 481.119H220.125C213.725 481.119 212.905 476.702 212.905 470.813V469.25C212.905 468.577 213.45 468.032 214.123 468.032H350.025C350.698 468.032 351.243 467.486 351.243 466.813V438.004C351.243 437.332 350.698 436.786 350.025 436.786H213.959C213.286 436.786 212.741 436.241 212.741 435.568V432.86C212.741 427.625 213.561 422.718 220.125 422.718H350.025ZM365.857 393.018C365.857 392.345 366.402 391.8 367.075 391.8H536.782C537.455 391.8 538 392.345 538 393.018V421.5C538 422.173 537.455 422.718 536.782 422.718H468.654C467.981 422.718 467.436 423.263 467.436 423.936V511.473C467.436 512.146 466.89 512.692 466.218 512.692H438.131C437.458 512.692 436.913 512.146 436.913 511.473V424.264C436.913 423.591 436.367 423.045 435.695 423.045H367.075C366.402 423.045 365.857 422.5 365.857 421.827V393.018ZM-452.283 455.599C-453.368 455.599 -453.912 454.288 -453.146 453.52L-422.429 422.748C-422.201 422.519 -421.89 422.39 -421.567 422.39H-413.969C-413.645 422.39 -413.335 422.519 -413.107 422.748L-382.39 453.52C-381.624 454.288 -382.168 455.599 -383.252 455.599H-452.283Z" fill="black"/>
</g>
<defs>
<clipPath id="clip0_2689_15734">
<rect width="512" height="512" fill="white"/>
</clipPath>
</defs>
</svg>
