<svg fill="none" height="426" viewBox="0 0 823 426" width="823" xmlns="http://www.w3.org/2000/svg"><g fill="#000"><path d="m30.977 423.7h-25.977v1.217h24.9803c.4501-.363.7823-.769.9967-1.217zm.1607-.641v-.929h-26.1377v1.121h26.1055c.0215-.042.0322-.107.0322-.192zm0-4.966c0-.107-.0107-.214-.0322-.321 0-.128-.0107-.245-.0321-.352h-25.559c.23576.406.52511.715.86804.929h24.75526zm-.6751-2.243h-25.4626c.02143.171.04287.331.0643.481.04287.128.08573.256.1286.384h25.7198c-.0643-.171-.1286-.32-.1929-.449-.0643-.149-.1501-.288-.2572-.416zm-3.6973-1.506h-15.4961v-.064h-6.2692v.801h24.6588c-.4072-.256-.8573-.438-1.3503-.545-.4929-.128-1.0073-.192-1.5432-.192zm-21.7653-2.531h26.1377v-.673h-26.1377zm0 9.259v.545h26.1377v-1.057h-6.2692v.512zm.03215-10.893h26.10555v-.609h-25.84835c-.15003.256-.23577.459-.2572.609zm22.69765 15.7c.3001 0 .6002-.054.9002-.161.3215-.128.6323-.288.9324-.48h-24.5624v.641zm-21.50811-17.334h24.91601v-.545h-24.11227c-.15003.085-.28935.171-.41795.256-.12859.086-.25719.182-.38579.289zm3.11852 10.605h15.52829v.833h6.2692v-.993h-23.24423c.23577.064.47153.107.7073.128.25719.021.50367.032.73944.032zm-4.34021-5.703h6.2692v-.737h-6.2692z"/><path d="m34.4182 418.349h17.2323l-1.0931-.929h-16.1392zm6.2692.769h3.215l.9966.865h8.6483l-1.1574-.993h-17.9717v.993h6.2692zm0-4.806v-.032h-6.2692v.801h17.2966l.9323-.801h-8.6161l-.0322.032zm-6.2692 2.403h15.3997l.9967-.865h-16.3964zm16.2356 8.202h8.6161l-1.4146-1.217h-8.6161zm-1.929-1.666h8.6162l-1.3182-1.121h-8.6161zm-1.8968-1.634h8.6161l-1.2217-1.057h-8.6482zm-12.4098 3.3h6.2692v-1.217h-6.2692zm0-1.666h6.2692v-1.121h-6.2692zm0-1.634h6.2692v-1.057h-6.2692zm10.5773-8.17h8.6161l.868-.737h-8.6482zm1.8968-1.634h8.6161l.8038-.673h-8.6483zm4.8868 14.066h8.6161l-.7716-.641h-8.6161zm-2.99-15.7h8.6161l.7073-.609h-8.6161zm1.8969-1.634h8.6161l.643-.545h-8.6161zm-16.2678 4.902h6.2692v-.737h-6.2692zm0-1.634h6.2692v-.673h-6.2692zm0 14.066h6.2692v-.641h-6.2692zm0-15.7h6.2692v-.609h-6.2692zm0-1.634h6.2692v-.545h-6.2692z"/><path d="m66.1432 419.983h21.8939l-.6751-.993h-20.5437zm15.4318 1.089.3858.545h7.1694l-.7073-1.057h-22.6655l-.7073 1.057h7.2015l.3858-.545zm-14.3066-2.723h19.6435l-.6109-.929h-18.4217zm1.0931-1.634h17.4573l-.5787-.865h-7.0729l.2893.448h-9.8056zm2.2826-3.268h12.9564l-.4823-.737h-11.9918zm13.5994 11.47h7.105l-.8359-1.217h-7.1372zm-21.4117 0h7.0729l.868-1.217h-7.1372zm1.1252-1.666h7.1372l.7716-1.121h-7.1694zm19.1291 0h7.1372l-.7716-1.121h-7.1372zm-11.381-11.438h10.8023l-.4501-.673h-9.9021zm5.9477 3.268h7.0729l-.5465-.801h-7.073zm-4.8868-4.902h8.6483l-.418-.609h-7.8123zm18.7754 15.059h-7.0729l.4501.641h7.0729zm-29.3526.641h7.0408l.45-.641h-7.0729zm11.6703-17.334h6.4299l-.3536-.545h-5.7226z"/><path d="m87.3836 411.813h26.3944v-.673h-26.3944zm0-1.634h26.3944v-.609h-26.3944zm0-1.634h26.3944v-.545h-26.3944zm10.0628 16.372h6.3016v-1.217h-6.3016zm0-1.666h6.3016v-1.121h-6.3016zm0-1.634h6.3016v-1.057h-6.3016zm0-1.634h6.3016v-.993h-6.3016zm0-1.634h6.3016v-.929h-6.3016zm0-1.634h6.3016v-.865h-6.3016zm0-1.634h6.3016v-.801h-6.3016zm0-1.634h6.3016v-.737h-6.3016zm6.3016 12.432v-.641h-6.3016v.641z"/><path d="m116.897 424.917h24.112v-1.217h-24.112zm0-1.666h24.112v-1.121h-24.112zm0-4.902h18.004v-.929h-18.004zm0-6.536h24.144v-.673h-24.144zm0 4.902h18.004v-.865h-18.004zm24.112 9.164v-.641h-24.112v.641zm-24.112-15.7h24.144v-.609h-24.144zm0 10.861v.577h24.112v-.577zm0-6.728v.769h18.004v-.769zm0-5.767h24.144v-.545h-24.144zm18.004 10.573v-.128h-18.004v.128z"/><path d="m170.736 423.7h-26.62v1.217h25.559c.215-.171.408-.352.579-.544.193-.214.354-.438.482-.673zm.483-1.57h-27.103v1.121h26.845c.065-.171.118-.342.161-.512.043-.193.075-.396.097-.609zm-.45-4.71h-26.653v.929h27.038c-.043-.107-.096-.246-.16-.416-.065-.171-.14-.342-.225-.513zm-.547-.833c.15-.15.311-.395.482-.737h-26.588v.865h26.202c-.042-.043-.075-.085-.096-.128zm-19.836 4.518v-.545h-6.27v1.057h27.103v-1.057h-6.302v.545zm-6.27-6.761v.737h26.91c.043-.15.085-.278.128-.385.043-.106.065-.181.065-.224v-.192h-6.302v.064zm0-2.531h27.103v-.673h-27.103zm0-1.634h27.103v-.609h-27.103zm22.923 15.7c.772 0 1.501-.214 2.186-.641h-25.109v.641zm-22.923-17.334h27.103v-.545h-27.103zm6.27 10.573h14.531v.865h6.302v-.993h-27.103v.993h6.27zm14.531-5.671h6.302v-.737h-6.302z"/><path d="m174.32 424.917h27.198v-1.217h-27.198zm0-1.666h27.198v-1.121h-27.198zm6.269-2.179v-.512h-6.269v1.057h27.198v-1.057h-6.301v.512zm-6.269-9.259h27.198v-.673h-27.198zm27.198 14.066v-.641h-27.198v.641zm-27.198-15.7h27.198v-.609h-27.198zm0-1.634h27.198v-.545h-27.198zm20.897 11.438h6.301v-.993h-6.301zm-20.897 0h6.269v-.993h-6.269zm20.897-1.634h6.301v-.929h-6.301zm-20.897 0h6.269v-.929h-6.269zm20.897-1.634h6.301v-.865h-6.301zm-20.897 0h6.269v-.865h-6.269zm20.897-1.634h6.301v-.801h-6.301zm0-1.634h6.301v-.737h-6.301zm-20.897 1.538v.096h6.269v-.096z"/><path d="m207.928 419.983h21.894l-.675-.993h-20.544zm15.432 1.089.386.545h7.169l-.707-1.057h-22.665l-.708 1.057h7.202l.386-.545zm-14.306-2.723h19.643l-.611-.929h-18.422zm1.093-1.634h17.457l-.579-.865h-7.073l.29.448h-9.806zm2.282-3.268h12.957l-.483-.737h-11.991zm13.6 11.47h7.105l-.836-1.217h-7.137zm-21.412 0h7.073l.868-1.217h-7.137zm1.125-1.666h7.137l.772-1.121h-7.169zm19.129 0h7.137l-.771-1.121h-7.137zm-11.381-11.438h10.803l-.451-.673h-9.902zm5.948 3.268h7.073l-.547-.801h-7.073zm-4.887-4.902h8.648l-.418-.609h-7.812zm18.776 15.059h-7.073l.45.641h7.073zm-29.353.641h7.041l.45-.641h-7.073zm11.67-17.334h6.43l-.353-.545h-5.723z"/><path d="m261.406 417.42h-25.173v.929h24.53c.257-.256.472-.566.643-.929zm.289-1.474v-.096h-25.462v.865h25.366c.064-.214.096-.47.096-.769zm-1.768 3.044h-23.694v.993h6.269v-.064h6.141l.064.064h7.941l-.193-.192c1.415 0 2.572-.267 3.472-.801zm1.768-7.85h-25.462v.673h25.462zm-.353-1.57h-25.109v.609h25.334c-.043-.107-.086-.203-.129-.289-.021-.106-.053-.213-.096-.32zm-1.672-1.57h-23.437v.545h24.337c-.214-.193-.514-.374-.9-.545zm-5.883 16.917h7.812l-1.222-1.217h-7.844zm-1.704-1.666h7.844l-1.125-1.121h-7.877zm-1.704-1.634h7.909l-1.061-1.057h-7.941zm-14.146 3.3h6.269v-1.217h-6.269zm0-1.666h6.269v-1.121h-6.269zm0-1.634h6.269v-1.057h-6.269zm19.161-6.536h6.301v-.801h-6.301zm6.526 10.157h-7.812l.675.641h7.78zm-6.526-11.791h6.301v-.737h-6.301zm-12.892 12.432v-.641h-6.269v.641z"/><path d="m291.363 423.7h-26.717v1.217h25.592c.493-.32.868-.726 1.125-1.217zm.482-1.57h-27.199v1.121h26.942c.064-.171.118-.342.161-.512.042-.193.075-.396.096-.609zm-20.929-1.058v-.512h-6.27v1.057h27.199v-1.057h-6.333v.512zm-6.27-9.259h27.199v-.673h-27.199zm0-1.634h27.199v-.609h-27.199zm22.055 15.7c1.179 0 2.176-.214 2.99-.641h-25.045v.641zm-22.055-17.334h27.199v-.545h-27.199zm20.866 11.438h6.333v-.993h-6.333zm-20.866 0h6.27v-.993h-6.27zm20.866-1.634h6.333v-.929h-6.333zm-20.866 0h6.27v-.929h-6.27zm20.866-1.634h6.333v-.865h-6.333zm-20.866 0h6.27v-.865h-6.27zm20.866-1.634h6.333v-.801h-6.333zm0-1.634h6.333v-.737h-6.333zm-20.866 1.538v.096h6.27v-.096z"/><path d="m334.013 423.7h-25.977v1.217h24.98c.45-.363.783-.769.997-1.217zm.161-.641v-.929h-26.138v1.121h26.105c.022-.042.033-.107.033-.192zm0-4.966c0-.107-.011-.214-.033-.321 0-.128-.01-.245-.032-.352h-25.559c.236.406.525.715.868.929h24.756zm-.676-2.243h-25.462c.021.171.043.331.064.481.043.128.086.256.129.384h25.72c-.065-.171-.129-.32-.193-.449-.065-.149-.15-.288-.258-.416zm-3.697-1.506h-15.496v-.064h-6.269v.801h24.659c-.407-.256-.858-.438-1.351-.545-.492-.128-1.007-.192-1.543-.192zm-21.765-2.531h26.138v-.673h-26.138zm0 9.259v.545h26.138v-1.057h-6.27v.512zm.032-10.893h26.106v-.609h-25.849c-.15.256-.235.459-.257.609zm22.698 15.7c.3 0 .6-.054.9-.161.321-.128.632-.288.932-.48h-24.562v.641zm-21.508-17.334h24.916v-.545h-24.113c-.15.085-.289.171-.418.256-.128.086-.257.182-.385.289zm3.118 10.605h15.528v.833h6.27v-.993h-23.245c.236.064.472.107.708.128.257.021.503.032.739.032zm-4.34-5.703h6.269v-.737h-6.269z"/><path d="m362.66 423.7h-25.206v1.217h24.209c.45-.363.782-.769.997-1.217zm.16-.641v-.929h-25.366v1.121h25.334c.022-.042.032-.107.032-.192zm-24.016-4.71h24.016v-.929h-24.884c.215.363.504.673.868.929zm-1.157-1.634h25.173v-.865h-25.366c.022.32.086.609.193.865zm6.076-2.371v-.064h-6.269v.801h25.366v-.801h-6.269v.064zm-6.269 6.728v.545h25.366v-1.057h-6.269v.512zm21.958 4.807c.3 0 .601-.054.901-.161.321-.128.632-.288.932-.48h-23.791v.641zm-17.682-6.729h14.821v.833h6.269v-.993h-22.537c.236.064.472.107.708.128.235.021.482.032.739.032zm-4.276-5.703h6.269v-.737h-6.269zm19.097 0h6.269v-.737h-6.269zm0-1.634h6.269v-.673h-6.269zm-19.097 0h6.269v-.673h-6.269zm19.097-1.634h6.269v-.609h-6.269zm-19.097 0h6.269v-.609h-6.269zm0-1.634h6.269v-.545h-6.269zm19.097 0h6.269v-.545h-6.269z"/><path d="m391.876 423.7h-25.977v1.217h25.013c.428-.363.75-.769.964-1.217zm.161-.641v-.929h-26.138v1.121h26.106c.021-.042.032-.107.032-.192zm-26.138-4.71h26.138v-.929h-26.138zm0-1.634h26.138v-.865h-26.138zm26.138-2.371h-19.869v-.064h-6.269v.801h26.138zm-26.138-2.531h26.138v-.673h-26.138zm0 9.259v.545h26.138v-1.057h-6.269v.512zm.032-10.893h26.106v-.609h-25.849c-.15.256-.235.459-.257.609zm22.73 15.7c.3 0 .6-.054.9-.161.322-.128.633-.288.933-.48h-24.595v.641zm-21.54-17.334h24.916v-.545h-24.112c-.151.085-.29.171-.418.256-.129.086-.258.182-.386.289zm18.647 10.605v.833h6.269v-.993h-26.138v.16zm-19.869-5.703h6.269v-.737h-6.269z"/><path d="m395.317 411.813h26.395v-.673h-26.395zm0-1.634h26.395v-.609h-26.395zm0-1.634h26.395v-.545h-26.395zm10.063 16.372h6.302v-1.217h-6.302zm0-1.666h6.302v-1.121h-6.302zm0-1.634h6.302v-1.057h-6.302zm0-1.634h6.302v-.993h-6.302zm0-1.634h6.302v-.929h-6.302zm0-1.634h6.302v-.865h-6.302zm0-1.634h6.302v-.801h-6.302zm0-1.634h6.302v-.737h-6.302zm6.302 12.432v-.641h-6.302v.641z"/><path d="m424.83 424.917h24.113v-1.217h-24.113zm0-1.666h24.113v-1.121h-24.113zm0-4.902h18.004v-.929h-18.004zm0-6.536h24.145v-.673h-24.145zm0 4.902h18.004v-.865h-18.004zm24.113 9.164v-.641h-24.113v.641zm-24.113-15.7h24.145v-.609h-24.145zm0 10.861v.577h24.113v-.577zm0-6.728v.769h18.004v-.769zm0-5.767h24.145v-.545h-24.145zm18.004 10.573v-.128h-18.004v.128z"/><path d="m474.684 416.715h6.301v-.865h-28.935v.865h6.269v-.288l.322.288h15.689l.354-.288zm-14.146 1.634h11.927l1.061-.929h-14.049zm-8.488-3.268h13.567l-.932-.801h-12.635zm15.336 0h13.599v-.801h-12.667zm-4.951 4.902h8.133l1.158-.993h-10.449zm6.847-6.536h11.703v-.737h-10.835zm-17.232 0h11.671l-.836-.737h-10.835zm22.634 11.47h6.301v-1.217h-6.301zm-22.634 0h6.269v-1.217h-6.269zm22.634-1.666h6.301v-1.121h-6.301zm-22.634 0h6.269v-1.121h-6.269zm22.634-1.634h6.301v-1.057h-6.301zm-22.634 0h6.269v-1.057h-6.269zm19.129-9.804h9.806v-.673h-9.034zm-19.129 0h9.806l-.772-.673h-9.034zm22.634 8.17h6.301v-.993h-6.301zm-22.634 0h6.269v-.993h-6.269zm12.281 1.634h4.373l1.221-1.057h-6.815zm10.353-3.268h6.301v-.929h-6.301zm-22.634 0h6.269v-.929h-6.269zm20.994-8.17h7.941v-.609h-7.234zm-20.994 0h7.909l-.707-.609h-7.202zm28.935 15.7v-.641h-6.301v.641zm-22.666 0v-.641h-6.269v.641zm16.622-17.334h6.044v-.545h-5.401zm-22.891 0h6.012l-.611-.545h-5.401zm14.178 14.706h.579l1.286-1.121h-3.183z"/><path d="m510.051 423.7h-25.977v1.217h25.013c.428-.363.75-.769.964-1.217zm.161-.641v-.929h-26.138v1.121h26.106c.021-.042.032-.107.032-.192zm-26.138-4.71h26.138v-.929h-26.138zm0-1.634h26.138v-.865h-26.138zm26.138-2.371h-19.869v-.064h-6.269v.801h26.138zm-26.138-2.531h26.138v-.673h-26.138zm0 9.259v.545h26.138v-1.057h-6.269v.512zm.032-10.893h26.106v-.609h-25.848c-.15.256-.236.459-.258.609zm22.73 15.7c.3 0 .6-.054.9-.161.322-.128.633-.288.933-.48h-24.595v.641zm-21.54-17.334h24.916v-.545h-24.112c-.15.085-.29.171-.418.256-.129.086-.257.182-.386.289zm18.647 10.605v.833h6.269v-.993h-26.138v.16zm-19.869-5.703h6.269v-.737h-6.269z"/><path d="m528.096 424.917h23.083v-1.217h-24.176c.278.512.643.918 1.093 1.217zm-1.286-1.666h24.369v-1.121h-24.594c0 .213.021.416.064.609.043.17.096.341.161.512zm-.225-11.438h24.594v-.673h-24.594zm24.594 9.292h-18.293v-.545h-6.301v1.057h24.594zm-24.594-10.926h24.594v-.609h-24.594zm5.144 15.7h19.45v-.641h-22.569c.857.427 1.897.641 3.119.641zm-5.144-17.334h24.594v-.545h-24.594zm0 11.438h6.301v-.993h-6.301zm0-1.634h6.301v-.929h-6.301zm0-1.634h6.301v-.865h-6.301zm0-1.634h6.301v-.801h-6.301zm0-1.634h6.301v-.737h-6.301z"/><path d="m554.276 424.917h27.199v-1.217h-27.199zm0-1.666h27.199v-1.121h-27.199zm6.269-2.179v-.512h-6.269v1.057h27.199v-1.057h-6.302v.512zm-6.269-9.259h27.199v-.673h-27.199zm27.199 14.066v-.641h-27.199v.641zm-27.199-15.7h27.199v-.609h-27.199zm0-1.634h27.199v-.545h-27.199zm20.897 11.438h6.302v-.993h-6.302zm-20.897 0h6.269v-.993h-6.269zm20.897-1.634h6.302v-.929h-6.302zm-20.897 0h6.269v-.929h-6.269zm20.897-1.634h6.302v-.865h-6.302zm-20.897 0h6.269v-.865h-6.269zm20.897-1.634h6.302v-.801h-6.302zm0-1.634h6.302v-.737h-6.302zm-20.897 1.538v.096h6.269v-.096z"/><path d="m609.747 417.42h-25.174v.929h24.531c.257-.256.471-.566.643-.929zm.289-1.474v-.096h-25.463v.865h25.367c.064-.214.096-.47.096-.769zm-1.768 3.044h-23.695v.993h6.27v-.064h6.14l.065.064h7.941l-.193-.192c1.414 0 2.572-.267 3.472-.801zm1.768-7.85h-25.463v.673h25.463zm-.354-1.57h-25.109v.609h25.334c-.042-.107-.085-.203-.128-.289-.022-.106-.054-.213-.097-.32zm-1.671-1.57h-23.438v.545h24.338c-.215-.193-.515-.374-.9-.545zm-5.884 16.917h7.813l-1.222-1.217h-7.845zm-1.704-1.666h7.845l-1.125-1.121h-7.877zm-1.704-1.634h7.909l-1.061-1.057h-7.941zm-14.146 3.3h6.27v-1.217h-6.27zm0-1.666h6.27v-1.121h-6.27zm0-1.634h6.27v-1.057h-6.27zm19.162-6.536h6.301v-.801h-6.301zm6.526 10.157h-7.812l.675.641h7.78zm-6.526-11.791h6.301v-.737h-6.301zm-12.892 12.432v-.641h-6.27v.641z"/><path d="m638.128 417.42h-25.141v.929h24.595c.235-.278.417-.587.546-.929zm.322-1.474v-.096h-25.463v.865h25.366c.064-.214.097-.47.097-.769zm-1.511 3.044h-23.952v.993h6.269v-.064h15.111c.921 0 1.779-.31 2.572-.929zm1.511-7.85h-25.463v.673h25.463zm-.322-1.57h-25.141v.609h25.334c-.043-.214-.107-.417-.193-.609zm-1.575-1.57h-23.566v.545h24.434c-.3-.214-.59-.395-.868-.545zm-23.566 16.917h6.269v-1.217h-6.269zm0-1.666h6.269v-1.121h-6.269zm0-1.634h6.269v-1.057h-6.269zm19.161-6.536h6.302v-.801h-6.302zm0-1.634h6.302v-.737h-6.302zm-12.892 12.432v-.641h-6.269v.641z"/><path d="m641.526 424.917h27.199v-1.217h-27.199zm0-1.666h27.199v-1.121h-27.199zm6.269-2.179v-.512h-6.269v1.057h27.199v-1.057h-6.302v.512zm-6.269-9.259h27.199v-.673h-27.199zm27.199 14.066v-.641h-27.199v.641zm-27.199-15.7h27.199v-.609h-27.199zm0-1.634h27.199v-.545h-27.199zm20.897 11.438h6.302v-.993h-6.302zm-20.897 0h6.269v-.993h-6.269zm20.897-1.634h6.302v-.929h-6.302zm-20.897 0h6.269v-.929h-6.269zm20.897-1.634h6.302v-.865h-6.302zm-20.897 0h6.269v-.865h-6.269zm20.897-1.634h6.302v-.801h-6.302zm0-1.634h6.302v-.737h-6.302zm-20.897 1.538v.096h6.269v-.096z"/><path d="m696.997 417.42h-25.174v.929h24.531c.257-.256.471-.566.643-.929zm.289-1.474v-.096h-25.463v.865h25.367c.064-.214.096-.47.096-.769zm-1.768 3.044h-23.695v.993h6.27v-.064h6.14l.065.064h7.941l-.193-.192c1.414 0 2.572-.267 3.472-.801zm1.768-7.85h-25.463v.673h25.463zm-.354-1.57h-25.109v.609h25.334c-.042-.107-.085-.203-.128-.289-.022-.106-.054-.213-.097-.32zm-1.671-1.57h-23.438v.545h24.338c-.215-.193-.515-.374-.9-.545zm-5.884 16.917h7.813l-1.222-1.217h-7.845zm-1.704-1.666h7.845l-1.125-1.121h-7.877zm-1.704-1.634h7.909l-1.061-1.057h-7.941zm-14.146 3.3h6.27v-1.217h-6.27zm0-1.666h6.27v-1.121h-6.27zm0-1.634h6.27v-1.057h-6.27zm19.162-6.536h6.301v-.801h-6.301zm6.526 10.157h-7.812l.675.641h7.78zm-6.526-11.791h6.301v-.737h-6.301zm-12.892 12.432v-.641h-6.27v.641z"/><path d="m703.548 419.983h21.894l-.675-.993h-20.543zm15.432 1.089.386.545h7.169l-.707-1.057h-22.665l-.708 1.057h7.202l.386-.545zm-14.306-2.723h19.643l-.611-.929h-18.421zm1.093-1.634h17.457l-.579-.865h-7.073l.29.448h-9.806zm2.282-3.268h12.957l-.483-.737h-11.991zm13.6 11.47h7.105l-.836-1.217h-7.137zm-21.412 0h7.073l.868-1.217h-7.137zm1.125-1.666h7.137l.772-1.121h-7.169zm19.129 0h7.138l-.772-1.121h-7.137zm-11.381-11.438h10.803l-.45-.673h-9.903zm5.948 3.268h7.073l-.547-.801h-7.073zm-4.887-4.902h8.649l-.418-.609h-7.813zm18.776 15.059h-7.073l.45.641h7.073zm-29.353.641h7.041l.45-.641h-7.073zm11.67-17.334h6.43l-.353-.545h-5.723z"/><path d="m724.789 411.813h26.395v-.673h-26.395zm0-1.634h26.395v-.609h-26.395zm0-1.634h26.395v-.545h-26.395zm10.063 16.372h6.301v-1.217h-6.301zm0-1.666h6.301v-1.121h-6.301zm0-1.634h6.301v-1.057h-6.301zm0-1.634h6.301v-.993h-6.301zm0-1.634h6.301v-.929h-6.301zm0-1.634h6.301v-.865h-6.301zm0-1.634h6.301v-.801h-6.301zm0-1.634h6.301v-.737h-6.301zm6.301 12.432v-.641h-6.301v.641z"/><path d="m754.27 424.917h6.269v-1.217h-6.269zm0-1.666h6.269v-1.121h-6.269zm0-1.634h6.269v-1.057h-6.269zm0-1.634h6.269v-.993h-6.269zm0-1.634h6.269v-.929h-6.269zm0-1.634h6.269v-.865h-6.269zm0-1.634h6.269v-.801h-6.269zm0-1.634h6.269v-.737h-6.269zm0-1.634h6.269v-.673h-6.269zm6.269 14.066v-.641h-6.269v.641zm-6.269-15.7h6.269v-.609h-6.269zm0-1.634h6.269v-.545h-6.269z"/><path d="m763.626 424.917h27.199v-1.217h-27.199zm0-1.666h27.199v-1.121h-27.199zm6.269-2.179v-.512h-6.269v1.057h27.199v-1.057h-6.302v.512zm-6.269-9.259h27.199v-.673h-27.199zm27.199 14.066v-.641h-27.199v.641zm-27.199-15.7h27.199v-.609h-27.199zm0-1.634h27.199v-.545h-27.199zm20.897 11.438h6.302v-.993h-6.302zm-20.897 0h6.269v-.993h-6.269zm20.897-1.634h6.302v-.929h-6.302zm-20.897 0h6.269v-.929h-6.269zm20.897-1.634h6.302v-.865h-6.302zm-20.897 0h6.269v-.865h-6.269zm20.897-1.634h6.302v-.801h-6.302zm0-1.634h6.302v-.737h-6.302zm-20.897 1.538v.096h6.269v-.096z"/><path d="m812.474 417.42h-10.32l1.35.929h15.496v-.929h-6.334v.128zm-12.282-1.378.965.673h10.32l-1.19-.865h-16.364v.865h6.269zm5.627 3.941h13.181v-.993h-14.596zm2.347 1.634h10.834v-1.057h-12.346zm-14.243-6.536h15.271l-1.125-.801h-14.146zm16.589 8.17h8.488v-1.121h-10.095zm-16.589-9.804h12.989l-1.029-.737h-11.96zm18.969 11.47h6.108v-1.217h-7.845zm-18.969 0h6.269v-1.217h-6.269zm0-1.666h6.269v-1.121h-6.269zm0-11.438h10.706l-.964-.673h-9.742zm0 9.804h6.269v-1.057h-6.269zm0-1.634h6.269v-.993h-6.269zm0-1.634h6.269v-.929h-6.269zm18.743-1.634h6.334v-.865h-6.334zm0-1.634h6.334v-.801h-6.334zm-18.743-4.902h8.391l-.836-.609h-7.555zm18.743 3.268h6.334v-.737h-6.334zm0-1.634h6.334v-.673h-6.334zm-12.474 14.066v-.641h-6.269v.641zm12.474-15.7h6.334v-.609h-6.334zm0-1.634h6.334v-.545h-6.334zm6.334 17.334v-.641h-5.658l.932.641zm-25.077-17.334h6.109l-.772-.545h-5.337z"/><path clip-rule="evenodd" d="m325.102 386.251c-.133 0-.26-.053-.354-.147l-17.502-17.504c-.094-.093-.221-.146-.353-.146h-72.502c-.133 0-.26.053-.354.146l-17.502 17.504c-.094.094-.221.147-.353.147h-.013-36.304c-.087 0-.172-.023-.248-.066l-31.331-17.825c-4.974-2.793-8.17-5.246-10.405-9.213-.268-.475-1.082-.295-1.082.25v26.354c0 .276-.224.5-.5.5h-18.395c-.276 0-.5-.224-.5-.5v-68.22c0-.277.224-.5.5-.5h18.395c.276 0 .5.223.5.5v27.089c0 .537.782.72 1.053.257 2.358-4.023 5.625-6.395 11.564-9.956l30.104-17.821c.077-.045.165-.069.255-.069h33.976c.511 0 .693.675.252.932l-57.342 33.382c-.333.194-.331.675.003.866l41.903 23.971c.194.111.439.08.598-.077l54.696-53.548c4.519-4.403 9.133-6.557 14.311-6.557h4.939c5.178 0 9.792 2.154 14.311 6.557l64.183 62.836c.32.314.098.858-.35.858zm-216.429-21.263c0-12.457-3.107-21.918-23.6315-21.918h-59.3154c-4.4957 0-4.698-4.357-4.7071-7.931-.0007-.276.2234-.499.4996-.499h81.9474c.276 0 .5-.224.5-.5v-16.609c0-.277-.224-.5-.5-.5h-77.7399c-21.65477 0-23.7261 8.711-23.7261 22.105 0 12.552 3.95436 21.544 23.7261 21.544h64.4541c.2802 0 .5059.23.4995.51-.0981 4.347-.3886 7.732-5.8265 7.732h-77.92809c-.27614 0-.5.224-.5.5v16.329c0 .276.22386.5.5.5h78.30469c20.1482 0 23.4432-8.805 23.4432-21.263zm206.644-47.457c0-.277.224-.5.5-.5h97.765c.276 0 .5.223.5.5v1.253c0 .376.4.619.74.457 2.968-1.419 6.339-2.211 9.962-2.211l74.727-.093c.276 0 .5.224.5.5v16.796c0 .277-.224.5-.5.5h-74.727c-3.766 0-4.236 2.81-4.236 5.808v1.748c0 .276.223.5.5.5h78.463c.276 0 .5.224.5.5v16.89c0 .277-.224.5-.5.5h-78.369c-.276 0-.5.224-.5.5v1.093c0 3.372.471 5.901 4.142 5.901h74.727c.276 0 .5.224.5.5v17.078c0 .276-.224.5-.5.5h-74.727c-13.275 0-22.313-8.711-22.313-22.012v-25.103c0-1.3.106-2.572.311-3.806.051-.31-.185-.596-.499-.596h-28.186c-.276 0-.5.224-.5.5v50.517c0 .276-.224.5-.5.5h-16.512c-.276 0-.5-.224-.5-.5v-50.33c0-.276-.224-.5-.5-.5h-39.768c-.276 0-.5-.224-.5-.5zm193.266 14.861c0-9.18 8.473-16.392 17.606-16.392 5.178 0 9.792 2.154 14.311 6.557l46.512 44.525c.318.305.846.079.846-.361v-49.284c0-.276.224-.5.5-.5h16.7c.277 0 .5.224.5.5v50.455c0 11.053-8.191 19.108-17.7 19.108-5.178 0-8.568-1.967-19.207-11.24l-41.614-40.391c-.317-.307-.848-.083-.848.359v50.023c0 .276-.224.5-.5.5h-16.606c-.277 0-.5-.224-.5-.5zm202.768 2.341c.276 0 .5-.223.5-.5v-16.796c0-.276-.224-.5-.501-.5l-74.726.093c-12.71 0-22.314 9.742-22.314 22.106v25.103c0 13.301 9.039 22.012 22.314 22.012h74.727c.276 0 .5-.224.5-.5v-17.078c0-.276-.224-.5-.5-.5h-74.727c-3.672 0-4.143-2.529-4.143-5.901v-1.093c0-.276.224-.5.5-.5h78.37c.276 0 .5-.223.5-.5v-16.89c0-.276-.224-.5-.5-.5h-78.464c-.276 0-.5-.224-.5-.5v-1.748c0-2.998.471-5.808 4.237-5.808zm8.884-17.202c0-.277.224-.5.5-.5h97.765c.276 0 .5.223.5.5v16.703c0 .276-.224.5-.5.5h-39.485c-.276 0-.5.224-.5.5v50.517c0 .276-.224.5-.5.5h-16.512c-.276 0-.5-.224-.5-.5v-50.33c0-.276-.224-.5-.5-.5h-39.768c-.276 0-.5-.224-.5-.5zm-469.874 36.03c-.446 0-.669-.539-.354-.854l18.019-18.014c.093-.094.221-.147.353-.147h4.525c.133 0 .26.053.354.147l18.018 18.014c.315.315.092.854-.354.854z" fill-rule="evenodd"/><path d="m287.767 87.894c-.687-.48-1.601-.4802-2.289-.0006l-280.25836 195.4666c-1.60531 1.119-.81309 3.64 1.1441 3.64h396.10426c1.105 0 2-.895 2-2v-114.591c0-.654-.319-1.266-.855-1.64z"/><path d="m420.532 287c-1.105 0-2-.895-2-2v-114.591c0-.654.319-1.266.855-1.64l115.845-80.8752c.688-.4799 1.601-.4801 2.289-.0005l280.259 195.4667c1.606 1.119.813 3.64-1.144 3.64z"/><path d="m410.355.799263c.688-.480128 1.602-.48013 2.29-.000002l109.017 76.108239c1.14.796 1.14 2.4838 0 3.2798l-109.017 76.1077c-.688.481-1.602.481-2.29 0l-109.017-76.1077c-1.141-.796-1.141-2.4839 0-3.2798z"/></g></svg>