<svg fill="none" height="387" viewBox="0 0 823 387" width="823" xmlns="http://www.w3.org/2000/svg"><g fill="#000"><path clip-rule="evenodd" d="m325.102 386.251c-.133 0-.26-.053-.354-.147l-17.502-17.504c-.094-.093-.221-.146-.353-.146h-72.502c-.133 0-.26.053-.354.146l-17.502 17.504c-.094.094-.221.147-.353.147h-.013-36.304c-.087 0-.172-.023-.248-.066l-31.331-17.825c-4.974-2.793-8.17-5.246-10.405-9.213-.268-.475-1.082-.295-1.082.25v26.354c0 .276-.224.5-.5.5h-18.395c-.276 0-.5-.224-.5-.5v-68.22c0-.277.224-.5.5-.5h18.395c.276 0 .5.223.5.5v27.089c0 .537.782.72 1.053.257 2.358-4.023 5.625-6.395 11.564-9.956l30.104-17.821c.077-.045.165-.069.255-.069h33.976c.511 0 .693.675.252.932l-57.342 33.382c-.333.194-.331.675.003.866l41.903 23.971c.194.111.439.08.598-.077l54.696-53.548c4.519-4.403 9.133-6.557 14.311-6.557h4.939c5.178 0 9.792 2.154 14.311 6.557l64.183 62.836c.32.314.098.858-.35.858zm-216.429-21.263c0-12.457-3.107-21.918-23.6315-21.918h-59.3154c-4.4957 0-4.698-4.357-4.7071-7.931-.0007-.276.2234-.499.4996-.499h81.9474c.276 0 .5-.224.5-.5v-16.609c0-.277-.224-.5-.5-.5h-77.7399c-21.65477 0-23.7261 8.711-23.7261 22.105 0 12.552 3.95436 21.544 23.7261 21.544h64.4541c.2802 0 .5059.23.4995.51-.0981 4.347-.3886 7.732-5.8265 7.732h-77.92809c-.27614 0-.5.224-.5.5v16.329c0 .276.22386.5.5.5h78.30469c20.1482 0 23.4432-8.805 23.4432-21.263zm206.644-47.457c0-.277.224-.5.5-.5h97.765c.276 0 .5.223.5.5v1.253c0 .376.4.619.74.457 2.968-1.419 6.339-2.211 9.962-2.211l74.727-.093c.276 0 .5.224.5.5v16.796c0 .277-.224.5-.5.5h-74.727c-3.766 0-4.236 2.81-4.236 5.808v1.748c0 .276.223.5.5.5h78.463c.276 0 .5.224.5.5v16.89c0 .277-.224.5-.5.5h-78.369c-.276 0-.5.224-.5.5v1.093c0 3.372.471 5.901 4.142 5.901h74.727c.276 0 .5.224.5.5v17.078c0 .276-.224.5-.5.5h-74.727c-13.275 0-22.313-8.711-22.313-22.012v-25.103c0-1.3.106-2.572.311-3.806.051-.31-.185-.596-.499-.596h-28.186c-.276 0-.5.224-.5.5v50.517c0 .276-.224.5-.5.5h-16.512c-.276 0-.5-.224-.5-.5v-50.33c0-.276-.224-.5-.5-.5h-39.768c-.276 0-.5-.224-.5-.5zm193.266 14.861c0-9.18 8.473-16.392 17.606-16.392 5.178 0 9.792 2.154 14.311 6.557l46.512 44.525c.318.305.846.079.846-.361v-49.284c0-.276.224-.5.5-.5h16.7c.277 0 .5.224.5.5v50.455c0 11.053-8.191 19.108-17.7 19.108-5.178 0-8.568-1.967-19.207-11.24l-41.614-40.391c-.317-.307-.848-.083-.848.359v50.023c0 .276-.224.5-.5.5h-16.606c-.277 0-.5-.224-.5-.5zm202.768 2.341c.276 0 .5-.223.5-.5v-16.796c0-.276-.224-.5-.501-.5l-74.726.093c-12.71 0-22.314 9.742-22.314 22.106v25.103c0 13.301 9.039 22.012 22.314 22.012h74.727c.276 0 .5-.224.5-.5v-17.078c0-.276-.224-.5-.5-.5h-74.727c-3.672 0-4.143-2.529-4.143-5.901v-1.093c0-.276.224-.5.5-.5h78.37c.276 0 .5-.223.5-.5v-16.89c0-.276-.224-.5-.5-.5h-78.464c-.276 0-.5-.224-.5-.5v-1.748c0-2.998.471-5.808 4.237-5.808zm8.884-17.202c0-.277.224-.5.5-.5h97.765c.276 0 .5.223.5.5v16.703c0 .276-.224.5-.5.5h-39.485c-.276 0-.5.224-.5.5v50.517c0 .276-.224.5-.5.5h-16.512c-.276 0-.5-.224-.5-.5v-50.33c0-.276-.224-.5-.5-.5h-39.768c-.276 0-.5-.224-.5-.5zm-469.874 36.03c-.446 0-.669-.539-.354-.854l18.019-18.014c.093-.094.221-.147.353-.147h4.525c.133 0 .26.053.354.147l18.018 18.014c.315.315.092.854-.354.854z" fill-rule="evenodd"/><path d="m287.767 87.894c-.687-.48-1.601-.4802-2.289-.0006l-280.25836 195.4666c-1.60531 1.119-.81309 3.64 1.1441 3.64h396.10426c1.105 0 2-.895 2-2v-114.591c0-.654-.319-1.266-.855-1.64z"/><path d="m420.532 287c-1.105 0-2-.895-2-2v-114.591c0-.654.319-1.266.855-1.64l115.845-80.8752c.688-.4799 1.601-.4801 2.289-.0005l280.259 195.4667c1.606 1.119.813 3.64-1.144 3.64z"/><path d="m410.355.799263c.688-.480128 1.602-.48013 2.29-.000002l109.017 76.108239c1.14.796 1.14 2.4838 0 3.2798l-109.017 76.1077c-.688.481-1.602.481-2.29 0l-109.017-76.1077c-1.141-.796-1.141-2.4839 0-3.2798z"/></g></svg>